<svg width="32" height="32" viewBox="0 0 32 32" fill="none" xmlns="http://www.w3.org/2000/svg">
<path d="M16 2C27.529 2 30 4.471 30 16C30 18.8594 29.8469 21.1613 29.4424 23.0068H29.4404L29 23C29 20.5295 28.4705 20 26 20C23.5295 20 23 20.5295 23 23L22.5596 23.0068C20.4654 23.074 20 23.6838 20 26C20 28.3162 20.4654 28.926 22.5596 28.9932L23 29C23 29.155 23.0023 29.3023 23.0068 29.4424C21.1613 29.8469 18.8594 30 16 30C4.471 30 2 27.529 2 16C2 4.471 4.471 2 16 2ZM16 11C13.6686 11 12.2018 11.117 11.2773 11.2773C11.117 12.2018 11 13.6686 11 16C11 18.3306 11.1171 19.7972 11.2773 20.7217C12.2018 20.882 13.6684 21 16 21C18.3308 21 19.7972 20.882 20.7217 20.7217C20.882 19.7972 21 18.3308 21 16C21 13.6684 20.882 12.2018 20.7217 11.2773C19.7972 11.1171 18.3306 11 16 11Z" fill="black"/>
<path d="M26 21.5C26.2173 21.5 26.4262 21.5114 26.6123 21.5527C26.804 21.5954 27.0007 21.6765 27.1621 21.8379C27.3235 21.9993 27.4046 22.196 27.4473 22.3877C27.4886 22.5738 27.5 22.7827 27.5 23V24.5H29C29.2173 24.5 29.4262 24.5114 29.6123 24.5527C29.804 24.5954 30.0007 24.6765 30.1621 24.8379C30.3235 24.9993 30.4046 25.196 30.4473 25.3877C30.4886 25.5738 30.5 25.7827 30.5 26C30.5 26.2173 30.4886 26.4262 30.4473 26.6123C30.4046 26.804 30.3235 27.0007 30.1621 27.1621C30.0007 27.3235 29.804 27.4046 29.6123 27.4473C29.4262 27.4886 29.2173 27.5 29 27.5H27.5V29C27.5 29.2173 27.4886 29.4262 27.4473 29.6123C27.4046 29.804 27.3235 30.0007 27.1621 30.1621C27.0007 30.3235 26.804 30.4046 26.6123 30.4473C26.4262 30.4886 26.2173 30.5 26 30.5C25.7827 30.5 25.5738 30.4886 25.3877 30.4473C25.196 30.4046 24.9993 30.3235 24.8379 30.1621C24.6765 30.0007 24.5954 29.804 24.5527 29.6123C24.5114 29.4262 24.5 29.2173 24.5 29V27.5H23C22.7827 27.5 22.5738 27.4886 22.3877 27.4473C22.196 27.4046 21.9993 27.3235 21.8379 27.1621C21.6765 27.0007 21.5954 26.804 21.5527 26.6123C21.5114 26.4262 21.5 26.2173 21.5 26C21.5 25.7827 21.5114 25.5738 21.5527 25.3877C21.5954 25.196 21.6765 24.9993 21.8379 24.8379C21.9993 24.6765 22.196 24.5954 22.3877 24.5527C22.5738 24.5114 22.7827 24.5 23 24.5H24.5V23C24.5 22.7827 24.5114 22.5738 24.5527 22.3877C24.5954 22.196 24.6765 21.9993 24.8379 21.8379C24.9993 21.6765 25.196 21.5954 25.3877 21.5527C25.5738 21.5114 25.7827 21.5 26 21.5Z" fill="black"/>
</svg>
